<svg xmlns="http://www.w3.org/2000/svg" width="539.84998" height="540.60015" viewBox="0 0 539.84998 540.60015" xmlns:xlink="http://www.w3.org/1999/xlink"><path d="m0,538.91014c0,.94,1.07,1.69,2.41,1.69h535.03c1.33002,0,2.40997-.75,2.40997-1.69s-1.07001-1.69-2.40997-1.69H2.41c-1.33,0-2.41.75-2.41,1.69Z" fill="#f8ad09" stroke-width="0"/><path id="uuid-032b630b-d608-4bf0-b451-42c431277e44-763" d="m279.59,264.50017h0c2.13-2.09,4.75-3.63,7.64999-4.48999l21.09-22.98999,11.12,10.66-22.60001,22.17999c-.97,2.84-2.60999,5.38-4.79999,7.41-5.41,5.17001-12.57999,6.5-16.01999,2.97-3.45001-3.51999-1.85999-10.57001,3.54001-15.73001h.01999v-.01001Z" fill="#f3a3a6" stroke-width="0"/><path d="m288.38,254.15016l11.20001,14.07999,57.89001-43.82001.04999-.10001,33.83002-63.13c5.17999-9.67,2.31-21.7-6.67999-27.98-5.5-3.85001-12.34003-4.92-18.76001-2.95s-11.47,6.7-13.87,12.97l-21.95001,57.45001-41.70999,53.45999v.01999l-.00003.00003Z" fill="#f8ad09" stroke-width="0"/><polygon points="383.71002 108.13016 360.10999 108.13016 360.10999 145.57016 386.13 137.02016 383.71002 108.13016" fill="#f3a3a6" stroke-width="0"/><path d="m337.41,92.57016c0,14.31999,11.60001,25.92,25.92001,25.92s25.91998-11.60001,25.91998-25.92-11.59998-25.92-25.91998-25.92-25.92001,11.60001-25.92001,25.92Z" fill="#f3a3a6" stroke-width="0"/><path d="m381.66998,109.14015l2.53003,4.8,11.15997-21.21001c6.71997-20.58-16.75-32.4-16.75-32.4-7.65997-9.02-23.04999,1.53-23.04999,1.53-22.20001-4.93-11.48001,13.78001-11.48001,13.78001,0,0,7.57001.17,7.57001,6.28999,0,6.13,8.25003,5.7,8.25003,5.7l6.46002,11.31,3.57001-4.34c13.27002-5.62,11.73999,14.53999,11.73999,14.53999l-.00006.00002Z" fill="#2f2e43" stroke-width="0"/><rect x="372.33002" y="491.76018" width="20.94" height="29.71002" fill="#f3a3a6" stroke-width="0"/><path d="m351.94,539.45018c9.19,0,22.60999-.96002,22.71002-.96997,3.59003.32001,21.51001,1.72998,22.40002-2.37.82001-3.77002-.39001-7.71002-.56-8.25-1.72998-17.13-2.37-17.33002-2.75-17.44-.60999-.17999-2.39001.66998-5.28003,2.53003l-.17999.12-.03998.21002c-.04999.26001-1.33002,6.54999-7.40002,5.59003-4.15997-.65997-5.51001-1.58002-5.94-2.03003.34998-.15997.78998-.44,1.09998-.91998.45001-.70001.53003-1.59998.22998-2.67999-.78003-2.84003-3.12-7.04999-3.21997-7.22998l-.27002-.47998-23.79999,16.06-14.70001,4.20001c-1.10999.31-2,1.10999-2.45001,2.16998h0c-.62,1.47998-.23999,3.20001.95999,4.28003,2.67001,2.40002,7.98001,6.51001,13.54001,7.02002,1.48001.14001,3.44.19,5.64001.19h0l.01001-.00018Z" fill="#2f2e43" stroke-width="0"/><rect x="428.53722" y="450.4889" width="20.94" height="29.71002" transform="translate(-195.87503 386.624) rotate(-39.6)" fill="#f3a3a6" stroke-width="0"/><path d="m436.17999,510.28014c7.08002-5.85999,16.81-15.15002,16.88-15.21997,2.96997-2.03003,17.67999-12.37,15.75-16.09998-1.77002-3.42999-5.21002-5.70001-5.69-6-12.25-12.10999-12.85999-11.84998-13.22998-11.69-.59003.25-1.41998,2.03003-2.46002,5.31l-.06.20001.09998.19c.14001.23999,3.15997,5.90997-2.13,9.03003-3.63,2.14001-5.25,2.28998-5.87,2.21997.16998-.34998.33002-.84998.26001-1.41998-.09998-.82001-.60999-1.57001-1.53003-2.21002-2.41998-1.69-6.90002-3.45001-7.09003-3.52002l-.51001-.20001-8.09998,27.53998-8.65002,12.60999c-.65002.95001-.83002,2.13-.5,3.23999h0c.46997,1.53998,1.85999,2.62,3.46997,2.69,3.58002.15002,10.28998-.07001,14.90002-3.21997,1.21997-.84003,2.76001-2.04999,4.46002-3.45001h.00006Z" fill="#2f2e43" stroke-width="0"/><path d="m337.70999,262.65016l31.92001,237.43002h23.94l15.96002-237.42999h-71.83002l.00998-.00003Z" fill="#2f2e43" stroke-width="0"/><polygon points="399.54999 392.34017 447.21997 454.19017 426.82001 471.04015 345.01001 393.23015 337.70001 262.65016 352.32999 275.73015 399.54999 392.34017" fill="#2f2e43" stroke-width="0"/><path d="m352.32999,122.98015l-14.63,139.66998h71.82999l5.57001-45.33002c3.42999-28-2.28003-56.36-16.28003-80.84l-11.02002-19.25999-35.47,5.75999h0l.00006.00003Z" fill="#f8ad09" stroke-width="0"/><path id="uuid-36bb0ace-8ba3-47ea-8fdc-8c3c7185bc6e-764" d="m345.89001,302.34017h0c1.07001-2.79001,2.82001-5.28,5.10001-7.26001l9.64999-29.67999,14.54999,5.09-11.34998,29.54999c.31,2.98001-.14001,5.97-1.28998,8.73999-2.77002,6.94-8.75,11.13-13.34,9.35001s-6.07001-8.85001-3.29999-15.79001h-.01999l-.00006.00003Z" fill="#f3a3a6" stroke-width="0"/><path d="m349.62,289.21016l16.03003,8.16,34.48999-63.89001v-.10999l4.59003-71.47c.70001-10.94-6.90002-20.7-17.69-22.67999-6.60999-1.21001-13.28003.64999-18.28998,5.11-5.03003,4.46001-7.65997,10.87-7.23999,17.56999l3.87,61.37-15.76001,65.94998h0l-.00006-.00998Z" fill="#f8ad09" stroke-width="0"/><path d="m256.94939,371.58911h-121.73331c-15.86178,0-28.76642-12.90447-28.76642-28.76642V28.76642c0-15.86196,12.90464-28.76642,28.76642-28.76642h121.73331c15.86196,0,28.76642,12.90447,28.76642,28.76642v314.05626c0,15.86196-12.90447,28.76642-28.76642,28.76642Z" fill="#2f2e41" stroke-width="0"/><path d="m257.07345,363.82561h-121.98144c-11.90181,0-21.58464-9.683-21.58464-21.58464V27.5837c0-11.90164,9.68283-21.58464,21.58464-21.58464h121.98144c11.90164,0,21.58464,9.683,21.58464,21.58464v314.65727c0,11.90164-9.683,21.58464-21.58464,21.58464Z" fill="#fff" stroke-width="0"/><path d="m215.13859,26.46646h-38.81748c-4.47535,0-8.11638-3.64086-8.11638-8.11638s3.64103-8.11638,8.11638-8.11638h38.81748c4.47552,0,8.11638,3.64086,8.11638,8.11638s-3.64086,8.11638-8.11638,8.11638Z" fill="#2f2e41" stroke-width="0"/><rect x="143.95466" y="139.52521" width="6.64592" height="66.45922" fill="#f8ad09" stroke-width="0"/><rect x="155.08658" y="194.35406" width="6.64592" height="11.63036" fill="#f8ad09" stroke-width="0"/><rect x="166.2185" y="191.0311" width="6.64592" height="14.95332" fill="#f8ad09" stroke-width="0"/><rect x="177.35042" y="189.36962" width="6.64592" height="16.6148" fill="#f8ad09" stroke-width="0"/><rect x="188.48233" y="189.36962" width="6.64592" height="16.6148" fill="#f8ad09" stroke-width="0"/><rect x="199.61425" y="136.20225" width="6.64592" height="69.78218" fill="#f8ad09" stroke-width="0"/><rect x="209.58314" y="191.86184" width="6.64592" height="14.95332" fill="#f8ad09" stroke-width="0"/><rect x="221.2135" y="191.86184" width="6.64592" height="14.95332" fill="#f8ad09" stroke-width="0"/><rect x="242.81274" y="191.86184" width="6.64592" height="14.95332" fill="#f8ad09" stroke-width="0"/><rect x="232.84386" y="196.84628" width="6.64592" height="9.96888" fill="#f8ad09" stroke-width="0"/></svg>
